<svg xmlns="http://www.w3.org/2000/svg" xmlns:xlink="http://www.w3.org/1999/xlink" viewBox="0 0 24 24">
  <polygon
    points="10.6,18.1 5.9,18.2 5.8,13.4 3.8,13.4 3.9,18.2 3.5,18.2 3.6,20.2 3.9,20.2 3.9,20.5 5.9,20.5 5.9,20.2 10.6,20.1 
			"
  />
  <polygon points="6,3.5 4,3.5 4,3.8 3.6,3.8 3.6,5.8 3.9,5.8 3.9,10.5 5.9,10.5 5.9,5.8 10.6,5.8 10.6,3.8 6,3.8 	" />
  <polygon
    points="20.1,13.4 18.1,13.4 18.1,18.1 13.4,18.1 13.4,20.1 18.1,20.1 18.1,20.5 20.1,20.5 20.1,20.2 20.4,20.2 20.4,18.2 
		20.1,18.2 	"
  />
  <polygon
    points="13.4,5.9 18.1,5.8 18.2,10.5 20.2,10.5 20.1,5.8 20.5,5.8 20.4,3.8 20.1,3.8 20.1,3.5 18.1,3.5 18.1,3.8 13.4,3.9 
			"
  />
</svg>
