<svg width="34" height="29" viewBox="0 0 34 29" fill="none" xmlns="http://www.w3.org/2000/svg">
<g clip-path="url(#clip0_1483_1993)">
<path d="M16.9477 23.9163C17.6086 23.9163 18.2425 24.1812 18.7098 24.6527C19.1772 25.1241 19.4397 25.7636 19.4398 26.4304C19.4397 27.0971 19.1772 27.7366 18.7098 28.208C18.2425 28.6795 17.6086 28.9444 16.9477 28.9444C16.2868 28.9444 15.653 28.6795 15.1856 28.208C14.7183 27.7366 14.4557 27.0971 14.4557 26.4304C14.4557 25.7636 14.7183 25.1241 15.1856 24.6527C15.653 24.1812 16.2868 23.9163 16.9477 23.9163Z" fill="#FEE951"/>
<path d="M31.4029 18.5727C30.742 18.5728 30.1082 18.8377 29.6408 19.3091C29.1735 19.7806 28.9109 20.42 28.9109 21.0868L28.9112 21.5356C28.7429 21.8351 28.4229 22.1724 27.8353 22.1724C27.1271 22.1724 26.8212 21.7878 26.6675 21.4468V9.37913C26.6679 8.73887 26.4261 8.12257 25.9916 7.65595C25.557 7.18933 24.9624 6.90754 24.3289 6.86806C23.6955 6.82858 23.071 7.03439 22.5828 7.4435C22.0946 7.85261 21.7795 8.4342 21.7018 9.06964C21.539 9.37709 21.2174 9.74093 20.6071 9.74093C19.8989 9.74093 19.593 9.35631 19.4393 9.01528V2.51409C19.4393 1.84731 19.1767 1.20784 18.7094 0.736359C18.242 0.264876 17.6082 0 16.9472 0C16.2863 0 15.6524 0.264876 15.1851 0.736359C14.7177 1.20784 14.4552 1.84731 14.4552 2.51409V15.7517C14.2985 16.0657 13.9759 16.4568 13.3425 16.4568C12.6867 16.4568 12.376 16.1271 12.2114 15.8074V11.8932C12.2114 11.2264 11.9489 10.587 11.4815 10.1155C11.0142 9.644 10.3803 9.37913 9.71939 9.37913C9.05846 9.37913 8.4246 9.644 7.95725 10.1155C7.4899 10.587 7.22735 11.2264 7.22735 11.8932V22.8643C7.06183 23.1677 6.74053 23.5174 6.14225 23.5174C5.44779 23.5174 5.14029 23.1476 4.98359 22.8123V19.8808C4.98359 19.214 4.72104 18.5745 4.25369 18.1031C3.78634 17.6316 3.15248 17.3667 2.49155 17.3667C1.83062 17.3667 1.19676 17.6316 0.729414 18.1031C0.262065 18.5745 -0.000488281 19.214 -0.000488281 19.8808V26.4304C-0.000488281 27.0972 0.262065 27.7366 0.729414 28.2081C1.19676 28.6796 1.83062 28.9445 2.49155 28.9445C3.15248 28.9445 3.78634 28.6796 4.25369 28.2081C4.72104 27.7366 4.98359 27.0972 4.98359 26.4304V26.3573C5.13661 26.0406 5.45938 25.6326 6.10547 25.6326C6.75156 25.6326 7.06054 25.9504 7.22735 26.2634V26.4304C7.22735 27.0972 7.4899 27.7366 7.95725 28.2081C8.4246 28.6796 9.05846 28.9445 9.71939 28.9445C10.3803 28.9445 11.0142 28.6796 11.4815 28.2081C11.9489 27.7366 12.2114 27.0972 12.2114 26.4304V19.2431C12.3744 18.9358 12.696 18.5727 13.3057 18.5727C13.9862 18.5727 14.2957 18.9284 14.4552 19.2592V19.5657C14.4552 20.2325 14.7177 20.872 15.1851 21.3435C15.6524 21.8149 16.2863 22.0798 16.9472 22.0798C17.6082 22.0798 18.242 21.8149 18.7094 21.3435C19.1767 20.872 19.4393 20.2325 19.4393 19.5657V12.6003C19.5886 12.281 19.911 11.8561 20.5703 11.8561C21.2025 11.8561 21.514 12.1626 21.683 12.471V26.4304C21.683 27.0972 21.9456 27.7366 22.4129 28.2081C22.8803 28.6796 23.5141 28.9445 24.1751 28.9445C24.836 28.9445 25.4699 28.6796 25.9372 28.2081C26.4046 27.7366 26.6671 27.0972 26.6671 26.4304V25.0316C26.8164 24.7123 27.1388 24.2874 27.7982 24.2874C28.4303 24.2874 28.7418 24.5939 28.9109 24.9023V26.4304C28.9109 27.0972 29.1734 27.7366 29.6408 28.2081C30.1081 28.6796 30.742 28.9445 31.4029 28.9445C32.0638 28.9445 32.6977 28.6796 33.165 28.2081C33.6324 27.7366 33.8949 27.0972 33.8949 26.4304L33.8946 21.0868C33.8945 20.4201 33.632 19.7807 33.1648 19.3093C32.6975 18.8378 32.0638 18.5729 31.4029 18.5727Z" fill="#FE7088"/>
<path d="M31.4029 18.5727C30.742 18.5728 30.1082 18.8377 29.6408 19.3091C29.1735 19.7806 28.9109 20.42 28.9109 21.0868L28.9112 21.5356C28.7429 21.8351 28.4229 22.1724 27.8353 22.1724C27.1271 22.1724 26.8212 21.7878 26.6675 21.4468V9.37913C26.6679 8.73887 26.4261 8.12257 25.9916 7.65595C25.557 7.18933 24.9624 6.90754 24.3289 6.86806C23.6955 6.82858 23.071 7.03439 22.5828 7.4435C22.0946 7.85261 21.7795 8.4342 21.7018 9.06964C21.539 9.37709 21.2174 9.74093 20.6071 9.74093C19.8989 9.74093 19.593 9.35631 19.4393 9.01528V2.51409C19.4393 1.84731 19.1767 1.20784 18.7094 0.736359C18.242 0.264876 17.6082 0 16.9472 0C16.2863 0 15.6524 0.264876 15.1851 0.736359C14.7177 1.20784 14.4552 1.84731 14.4552 2.51409V15.7517C14.2985 16.0657 13.9759 16.4568 13.3425 16.4568C12.6867 16.4568 12.376 16.1271 12.2114 15.8074V11.8932C12.2114 11.2264 11.9489 10.587 11.4815 10.1155C11.0142 9.644 10.3803 9.37913 9.71939 9.37913C9.05846 9.37913 8.4246 9.644 7.95725 10.1155C7.4899 10.587 7.22735 11.2264 7.22735 11.8932V22.8643C7.06183 23.1677 6.74053 23.5174 6.14225 23.5174C5.44779 23.5174 5.14029 23.1476 4.98359 22.8123V19.8808C4.98359 19.214 4.72104 18.5745 4.25369 18.1031C3.78634 17.6316 3.15248 17.3667 2.49155 17.3667C1.83062 17.3667 1.19676 17.6316 0.729413 18.1031C0.262065 18.5745 -0.000488281 19.214 -0.000488281 19.8808V26.4304C-0.000488281 27.0972 0.262065 27.7366 0.729413 28.2081C1.19676 28.6796 1.83062 28.9445 2.49155 28.9445C3.15248 28.9445 3.78634 28.6796 4.25369 28.2081C4.72104 27.7366 4.98359 27.0972 4.98359 26.4304V26.3573C5.13661 26.0406 5.45938 25.6326 6.10547 25.6326C6.75156 25.6326 7.06054 25.9504 7.22735 26.2634V26.4304C7.22735 27.0972 7.4899 27.7366 7.95725 28.2081C8.4246 28.6796 9.05846 28.9445 9.71939 28.9445C10.3803 28.9445 11.0142 28.6796 11.4815 28.2081C11.9489 27.7366 12.2114 27.0972 12.2114 26.4304V19.2431C12.3744 18.9358 12.696 18.5727 13.3057 18.5727C13.9862 18.5727 14.2957 18.9284 14.4552 19.2592V19.5657C14.4552 20.2325 14.7177 20.872 15.1851 21.3435C15.6524 21.8149 16.2863 22.0798 16.9472 22.0798C17.6082 22.0798 18.242 21.8149 18.7094 21.3435C19.1767 20.872 19.4393 20.2325 19.4393 19.5657V12.6003C19.5886 12.281 19.911 11.8561 20.5703 11.8561C21.2025 11.8561 21.514 12.1626 21.683 12.471V26.4304C21.683 27.0972 21.9456 27.7366 22.4129 28.2081C22.8803 28.6796 23.5141 28.9445 24.1751 28.9445C24.836 28.9445 25.4699 28.6796 25.9372 28.2081C26.4045 27.7366 26.6671 27.0972 26.6671 26.4304V25.0316C26.8164 24.7123 27.1388 24.2874 27.7982 24.2874C28.4303 24.2874 28.7418 24.5939 28.9109 24.9023V26.4304C28.9109 27.0972 29.1734 27.7366 29.6408 28.2081C30.1081 28.6796 30.742 28.9445 31.4029 28.9445C32.0638 28.9445 32.6977 28.6796 33.165 28.2081C33.6324 27.7366 33.8949 27.0972 33.8949 26.4304L33.8946 21.0868C33.8945 20.4201 33.632 19.7807 33.1647 19.3093C32.6975 18.8378 32.0638 18.5729 31.4029 18.5727Z" fill="#FEE951"/>
<path d="M31.4029 18.5727C30.742 18.5728 30.1082 18.8377 29.6408 19.3091C29.1735 19.7806 28.9109 20.42 28.9109 21.0868L28.9112 21.5356C28.7429 21.8351 28.4229 22.1724 27.8353 22.1724C27.1271 22.1724 26.8212 21.7878 26.6675 21.4468V9.37913C26.6679 8.73887 26.4261 8.12257 25.9916 7.65595C25.557 7.18933 24.9624 6.90754 24.3289 6.86806C23.6955 6.82858 23.071 7.03439 22.5828 7.4435C22.0946 7.85261 21.7795 8.4342 21.7018 9.06964C21.539 9.37709 21.2174 9.74093 20.6071 9.74093C19.8989 9.74093 19.593 9.35631 19.4393 9.01528V2.51409C19.4393 1.84731 19.1767 1.20784 18.7094 0.736359C18.242 0.264876 17.6082 0 16.9472 0C16.2863 0 15.6524 0.264876 15.1851 0.736359C14.7177 1.20784 14.4552 1.84731 14.4552 2.51409V15.7517C14.2985 16.0657 13.9759 16.4568 13.3425 16.4568C12.6867 16.4568 12.376 16.1271 12.2114 15.8074V11.8932C12.2114 11.2264 11.9489 10.587 11.4815 10.1155C11.0142 9.644 10.3803 9.37913 9.71939 9.37913C9.05846 9.37913 8.4246 9.644 7.95725 10.1155C7.4899 10.587 7.22735 11.2264 7.22735 11.8932V22.8643C7.06183 23.1677 6.74053 23.5174 6.14225 23.5174C5.44779 23.5174 5.14029 23.1476 4.98359 22.8123V19.8808C4.98359 19.214 4.72104 18.5745 4.25369 18.1031C3.78634 17.6316 3.15248 17.3667 2.49155 17.3667C1.83062 17.3667 1.19676 17.6316 0.729413 18.1031C0.262065 18.5745 -0.000488281 19.214 -0.000488281 19.8808V26.4304C-0.000488281 27.0972 0.262065 27.7366 0.729413 28.2081C1.19676 28.6796 1.83062 28.9445 2.49155 28.9445C3.15248 28.9445 3.78634 28.6796 4.25369 28.2081C4.72104 27.7366 4.98359 27.0972 4.98359 26.4304V26.3573C5.13661 26.0406 5.45938 25.6326 6.10547 25.6326C6.75156 25.6326 7.06054 25.9504 7.22735 26.2634V26.4304C7.22735 27.0972 7.4899 27.7366 7.95725 28.2081C8.4246 28.6796 9.05846 28.9445 9.71939 28.9445C10.3803 28.9445 11.0142 28.6796 11.4815 28.2081C11.9489 27.7366 12.2114 27.0972 12.2114 26.4304V19.2431C12.3744 18.9358 12.696 18.5727 13.3057 18.5727C13.9862 18.5727 14.2957 18.9284 14.4552 19.2592V19.5657C14.4552 20.2325 14.7177 20.872 15.1851 21.3435C15.6524 21.8149 16.2863 22.0798 16.9472 22.0798C17.6082 22.0798 18.242 21.8149 18.7094 21.3435C19.1767 20.872 19.4393 20.2325 19.4393 19.5657V12.6003C19.5886 12.281 19.911 11.8561 20.5703 11.8561C21.2025 11.8561 21.514 12.1626 21.683 12.471V26.4304C21.683 27.0972 21.9456 27.7366 22.4129 28.2081C22.8803 28.6796 23.5141 28.9445 24.1751 28.9445C24.836 28.9445 25.4699 28.6796 25.9372 28.2081C26.4045 27.7366 26.6671 27.0972 26.6671 26.4304V25.0316C26.8164 24.7123 27.1388 24.2874 27.7982 24.2874C28.4303 24.2874 28.7418 24.5939 28.9109 24.9023V26.4304C28.9109 27.0972 29.1734 27.7366 29.6408 28.2081C30.1081 28.6796 30.742 28.9445 31.4029 28.9445C32.0638 28.9445 32.6977 28.6796 33.165 28.2081C33.6324 27.7366 33.8949 27.0972 33.8949 26.4304L33.8946 21.0868C33.8945 20.4201 33.632 19.7807 33.1647 19.3093C32.6975 18.8378 32.0638 18.5729 31.4029 18.5727Z" fill="url(#paint0_linear_1483_1993)"/>
</g>
<defs>
<linearGradient id="paint0_linear_1483_1993" x1="-0.00011955" y1="24.3802" x2="33.8955" y2="23.733" gradientUnits="userSpaceOnUse">
<stop stop-color="#FF6986"/>
<stop offset="0.0677083" stop-color="#FF718C"/>
<stop offset="0.14632" stop-color="#FFA594"/>
<stop offset="0.161565" stop-color="#FFB950" stop-opacity="0.52"/>
<stop offset="0.194505" stop-color="#FB907C"/>
<stop offset="0.220192" stop-color="#FF6986"/>
<stop offset="0.333333" stop-color="#FF6986" stop-opacity="0.76"/>
<stop offset="0.384996" stop-color="#FFB178" stop-opacity="0.7"/>
<stop offset="0.415621" stop-color="#FFEA50" stop-opacity="0.75"/>
<stop offset="0.423881" stop-color="#FFEA50"/>
<stop offset="0.474157" stop-color="#FFEA50"/>
<stop offset="0.578125" stop-color="#FFEA50"/>
<stop offset="0.645219" stop-color="#FF6986"/>
<stop offset="0.723658" stop-color="#FF6986" stop-opacity="0.87"/>
<stop offset="0.7814" stop-color="#FFB198" stop-opacity="0.92"/>
<stop offset="0.806268" stop-color="#FFB950" stop-opacity="0.52"/>
<stop offset="0.859375" stop-color="#FF6986"/>
<stop offset="0.968309" stop-color="#FF6986" stop-opacity="0.7"/>
<stop offset="1" stop-color="#FFB198" stop-opacity="0.92"/>
</linearGradient>
<clipPath id="clip0_1483_1993">
<rect width="33.8954" height="28.9445" fill="white"/>
</clipPath>
</defs>
</svg>
