<svg version="1.1" xmlns="http://www.w3.org/2000/svg" xmlns:xlink="http://www.w3.org/1999/xlink" viewBox="0 0 24 24">
  <path
    d="M17.5,4.5l-6.3-0.1C10.6,4.4,10,4.6,9.6,5C9,5.5,8.7,6.3,8.7,7c0,1.5,1,2.7,2.4,2.7l6.3,0.1c0,0,0,0,0,0
	c0.6,0,1.2-0.2,1.6-0.7c0.5-0.5,0.8-1.2,0.8-2C19.9,5.8,18.9,4.5,17.5,4.5z M9.7,7c0-0.5,0.2-1,0.5-1.3c0.3-0.2,0.5-0.4,0.9-0.4
	l3.1,0.1l-0.1,3.4l-3.1-0.1C10.3,8.7,9.7,8,9.7,7z"
  />
  <path
    d="M8.5,11.1l-2.2,1.3l2.2,5c1,0.4,3.2,1.1,4.1,1.4c0.9,0.3,1.4,0.1,1.6,0c2.1-1.4,6.3-4.1,6.6-4.4
	c0.4-0.4,0.6-1.3,0.1-2.3c-0.4-0.9-1.4-0.7-1.8-0.5l-4.2,2.8c0-1-0.6-1.6-1-1.8c-1.1-0.4-3.5-1.3-4.1-1.4C9.2,10.9,8.6,11,8.5,11.1z
	"
  />
  <path
    d="M3.1,14.6C2.8,14.1,3,13.3,3.5,13l0.9-0.5c0.5-0.3,1-0.1,1.3,0.4l2.2,4.9c0.2,0.5,0,1.1-0.4,1.4L7,19.5
	c-0.4,0.3-1,0.1-1.2-0.3L3.1,14.6z"
  />
</svg>
