<svg xmlns="http://www.w3.org/2000/svg" xmlns:xlink="http://www.w3.org/1999/xlink" viewBox="0 0 24 24">
  <path
    d="M9.3,21.1H5.7c-0.7,0-1.5-0.3-2-0.8c-0.5-0.5-0.8-1.2-0.8-2V5.7c0-0.7,0.3-1.5,0.8-2c0.5-0.5,1.2-0.8,2-0.8h3.6
	c0.6,0,1,0.4,1,1s-0.4,1-1,1H5.7C5.5,4.9,5.3,5,5.1,5.1C5,5.3,4.9,5.5,4.9,5.7v12.6c0,0.2,0.1,0.4,0.2,0.6c0.2,0.2,0.4,0.2,0.6,0.2
	h3.6c0.6,0,1,0.4,1,1S9.9,21.1,9.3,21.1z"
  />
  <path
    d="M21,12.4c0.1-0.2,0.1-0.5,0-0.8c-0.1-0.1-0.1-0.2-0.2-0.3l-4.5-4.5c-0.4-0.4-1-0.4-1.4,0s-0.4,1,0,1.4l2.8,2.8H9.3
	c-0.6,0-1,0.4-1,1s0.4,1,1,1h8.4l-2.8,2.8c-0.4,0.4-0.4,1,0,1.4c0.2,0.2,0.5,0.3,0.7,0.3s0.5-0.1,0.7-0.3l4.5-4.5
	C20.9,12.6,21,12.5,21,12.4z"
  />
</svg>
