<svg version="1.1" xmlns="http://www.w3.org/2000/svg" xmlns:xlink="http://www.w3.org/1999/xlink" viewBox="0 0 24 24">
  <path
    d="M13.8,22h-3.6c-0.5,0-0.9-0.3-1-0.8l-0.4-1.9c-0.5-0.2-1.1-0.5-1.5-0.9L5.4,19c-0.4,0.1-0.9,0-1.2-0.5l-1.8-3.2
	c-0.2-0.4-0.2-0.9,0.2-1.2L4,12.9C4,12.3,4,11.7,4,11.1L2.6,9.8C2.3,9.5,2.2,9,2.4,8.6l1.8-3.2C4.5,5,5,4.8,5.4,5l1.8,0.6
	C7.5,5.4,7.8,5.2,8,5.1c0.3-0.1,0.5-0.3,0.8-0.4l0.4-1.9C9.3,2.3,9.7,2,10.2,2h3.6c0.5,0,0.9,0.3,1,0.8l0.4,1.9
	c0.3,0.1,0.6,0.3,0.8,0.4c0.2,0.1,0.5,0.3,0.7,0.5L18.6,5c0.4-0.1,0.9,0,1.2,0.5l1.8,3.2c0.2,0.4,0.2,0.9-0.2,1.2L20,11.1
	c0.1,0.6,0.1,1.2,0,1.8l1.4,1.3c0.3,0.3,0.4,0.8,0.2,1.2l-1.8,3.2C19.5,19,19,19.2,18.6,19l-1.8-0.6c-0.2,0.2-0.5,0.3-0.7,0.5
	c-0.3,0.2-0.5,0.3-0.8,0.4l-0.4,1.9C14.7,21.7,14.3,22,13.8,22z M12,8c-2.2,0-4,1.8-4,4s1.8,4,4,4c2.2,0,4-1.8,4-4S14.2,8,12,8z"
  />
</svg>
