<svg version="1.1" xmlns="http://www.w3.org/2000/svg" xmlns:xlink="http://www.w3.org/1999/xlink" x="0px" y="0px"
	 viewBox="0 0 383.2 383.2">
<g>
	<path d="M38.2,383.2c-0.4-0.3-0.8-0.5-1.3-0.6C23,378.9,15,368.7,15,354.3c0-59.7,0-119.5,0-179.3c0-33.5,0-67.1,0-100.7
		c0-7.6,2.4-10,10.1-10h30.3v-4.2c0-16.8,0-33.7,0-50.5c0-7,2.5-9.6,9.4-9.6H359c6.7,0,9.3,2.6,9.3,9.3c0,58.9,0,117.8,0,176.6
		c0,1,0,2-0.1,3c-0.6,4.1-4.4,6.9-8.4,6.3c-3.3-0.5-5.9-3.1-6.3-6.4c-0.1-1.4-0.2-2.7-0.1-4.1c0-54.9,0-109.8,0-164.7v-4.8H70.4v4.7
		c0,109.3,0,218.6,0,327.9c0,6.8,0.4,13.7-3.2,20.5h270.6c10.8,0,15.4-4.6,15.4-15.5c0-31.6,0-63.1,0-94.7c-0.1-1.2,0-2.5,0.1-3.7
		c0.5-4.1,4.1-7,8.2-6.6c3.5,0.4,6.2,3.1,6.6,6.6c0.1,1.2,0.1,2.5,0.1,3.7v94.3c0,16.6-6.8,25.7-22.6,30.4c-0.2,0.1-0.4,0.3-0.6,0.5
		L38.2,383.2z M30,79.4v4.4c0,89.7,0,179.4,0,269.1c-0.1,1.2,0,2.5,0.1,3.7c0.7,5.3,3.5,9,8.5,10.9c8.7,3.1,16.9-3.3,16.9-13.2
		c0-90.6,0-181.1,0-271.7c0-1.1-0.1-2.1-0.2-3.2L30,79.4z"/>
	<path d="M229.8,221.7c0,23.1,0,46.1,0,69.2c0,7.5-2.4,10-9.8,10H98.8c-7.2,0-9.8-2.5-9.8-9.6V151.8c0-7,2.5-9.6,9.4-9.6h121.9
		c6.9,0,9.4,2.6,9.4,9.6C229.8,175.1,229.8,198.4,229.8,221.7z M104.3,157.3v57c5.4-5.4,10.3-10.4,15.2-15.3s8.5-4.9,13.4,0
		c4.7,4.7,9.3,9.6,14.5,14.9c1.2-1.6,2-2.7,2.9-3.7c10.5-10.5,21-21,31.5-31.5c4.2-4.2,8.1-4.2,12.4-0.1c1.2,1.1,2.3,2.3,3.4,3.4
		l17,17.1v-41.8L104.3,157.3z M197.5,285.7l-71.8-71.9c-6.4,6.4-13.1,13-19.5,19.7c-1.3,1.4-2,3.2-2.1,5.1
		c-0.2,14.6-0.1,29.2-0.1,43.8c0,1.1,0.1,2.1,0.2,3.2H197.5z M214.5,280.3c0.1-0.4,0.2-0.9,0.2-1.3c0-18.8,0-37.6,0-56.5
		c0-1.1-0.3-2.1-1-3c-8.4-8.6-17-17.2-25.1-25.4l-30.1,30.1L214.5,280.3z"/>
	<path d="M211.9,327.9h112.2c1.2,0,2.5,0,3.7,0.1c4.1,0.4,7.1,4,6.7,8.1c-0.3,3.6-3.2,6.4-6.8,6.7c-1.2,0.1-2.5,0.1-3.7,0.1H99.6
		c-6.9,0-10.4-2.5-10.5-7.4s3.5-7.6,10.6-7.6L211.9,327.9z"/>
	<path d="M254.7,75.3l3.5-17.4c0.4-2.1,0.7-4.2,1.3-6.2c1.1-4.1,4.6-6.5,8.4-5.8c3.9,0.5,6.7,4.1,6.2,8c0,0.1,0,0.3-0.1,0.4
		c-1,6.6-2.5,13.2-3.8,19.8c-1.9,9.9-3.9,19.8-5.9,29.7c-1,4.9-4,7.6-8.2,7.8c-4.2,0.2-7.4-2.3-8.9-7.1c-2.1-6.9-4.2-13.8-6.3-20.7
		c-0.4-1.3-0.9-2.5-1.6-4.6c-2.7,8.8-5.1,16.8-7.7,24.8c-0.6,1.9-1.5,3.6-2.8,5.1c-2.1,2.3-5.3,3.1-8.2,2c-3.8-1.2-5.5-4-6.2-7.7
		c-1.8-9.2-3.6-18.3-5.4-27.4c-1.4-7-2.8-13.9-4-20.9c-0.9-4.6,1.6-8.5,5.9-9.3c4-0.8,7.7,1.8,8.6,6.3c1.6,7.7,3.1,15.4,4.8,23.7
		c0.5-0.8,0.9-1.6,1.2-2.4c2.2-7.2,4.4-14.3,6.6-21.5c1.3-4.2,3.7-6.3,7.3-6.3s6.3,2.1,7.7,6.4c2.4,7.7,4.7,15.4,7.1,23.1
		L254.7,75.3z"/>
	<path d="M124.8,79.3c0-7.6,0-15.1,0-22.7c0-1.5,0-3,0.1-4.5c0.5-4,4.1-6.9,8.2-6.4c2.8,0.3,5.2,2.3,6.1,5c0.4,1.6,0.6,3.2,0.6,4.8
		c0,14.8,0,29.7,0,44.5c0,0.9,0,1.8-0.1,2.6c-0.3,3.8-2,6.7-5.8,8c-3.5,1.2-6.9-0.1-9.4-3.7c-5.9-8.5-11.8-17-17.7-25.5
		c-0.7-1-1.4-2-2.6-3.6c-0.1,1.7-0.3,2.7-0.3,3.7c0,7.4,0,14.7,0,22.1c-0.1,4.6-3.1,7.8-7.3,7.9c-4.1,0.1-7.5-3.1-7.6-7.2
		c0-0.1,0-0.3,0-0.4c-0.1-16.8-0.1-33.7,0-50.5c-0.2-3.4,2.1-6.4,5.4-7.3c3.8-1.2,6.6,0.4,8.7,3.5c6.3,9,12.5,18,18.7,27.1
		c0.7,1,1.4,2,2.2,3L124.8,79.3z"/>
	<path d="M311.3,111.6c-8.3-0.3-15.6-3-21.6-8.8c-3.7-3.6-4.1-8-1.1-11.3c3-3.3,7.4-3.2,11.2,0.3c3.2,3.1,7.4,4.8,11.8,4.8
		c1.5,0.1,3-0.3,4.3-1c1.5-1,3.3-2.6,3.4-4s-1.6-3.4-3-4.1c-5-2.4-10.3-4.4-15.5-6.5c-6.9-2.8-10.9-7.8-11.2-15.3
		c-0.4-7.8,3.2-13.4,9.9-17.1c9.1-5,23.8-2.8,31.1,4.5c2.8,2.6,3.1,6.8,0.8,9.9c-2.3,3.1-6.2,3.8-9.7,2c-2.7-1.6-5.5-2.9-8.4-3.9
		c-2.1-0.4-4.2-0.2-6.2,0.5c-1.2,0.5-2.1,1.6-2.3,2.9c-0.1,0.9,1.2,2.3,2.3,2.8c4.4,2,9,3.6,13.5,5.5c9.8,4.2,15.2,12.2,14,20.7
		c-1.3,9.4-9.4,16.8-19.8,18C313.5,111.5,312.4,111.5,311.3,111.6z"/>
	<path d="M169.8,60.6v10.5c3.6,0,7.2,0,10.7,0c5.6,0,8.8,2.8,8.9,7.4c0,4.8-3.2,7.6-9.1,7.6c-3.4,0-6.7,0-10.4,0v10.5
		c4.1,0,8.1,0,12.2,0c5.6,0.1,8.8,2.8,8.7,7.5s-3.2,7.4-8.8,7.4c-6.4,0-12.7,0-19.1,0c-5.5,0-8.3-2.8-8.3-8.3
		c-0.1-16.5-0.1-32.9,0-49.4c0-5.3,2.9-8.1,8.1-8.1c6.6-0.1,13.2-0.1,19.8,0c5.2,0,8.3,3,8.3,7.6s-3.2,7.3-8.5,7.3
		C178.4,60.7,174.3,60.6,169.8,60.6z"/>
	<path d="M293.3,157.2c-10.6,0-21.2,0-31.8,0c-5.8,0-9.2-2.8-9.3-7.4s3.4-7.6,9.1-7.6c21.4,0,42.8,0,64.2,0c5.5,0,8.9,2.9,8.9,7.4
		s-3.4,7.6-9.1,7.6C314.8,157.2,304.1,157.2,293.3,157.2z"/>
	<path d="M293.6,193.1h-33.2c-3.4,0-6-1.4-7.4-4.6c-1.3-2.8-0.9-5.7,1.2-7.6c1.7-1.5,3.9-2.5,6.2-2.7c22-0.2,44.1-0.1,66.1-0.1
		c4.8,0,8.1,3.2,8.1,7.5s-3.3,7.4-8.1,7.5C315.5,193.1,304.6,193.1,293.6,193.1z"/>
	<path d="M293.5,229c-10.7,0-21.4,0-32.1,0c-5.6,0-9.1-3-9-7.6s3.5-7.3,9-7.3c21.4,0,42.8,0,64.3,0c5.7,0,9.1,3,9,7.6
		s-3.5,7.3-9,7.3C314.9,229,304.2,229,293.5,229z"/>
	<path d="M293.7,250c10.6,0,21.2,0,31.8,0c5.7,0,9.2,2.9,9.2,7.5c0,4.6-3.5,7.4-9.2,7.4c-21.5,0-43.1,0-64.6,0c-4.4,0-7.5-2.3-8.3-6
		c-0.7-3.3,1-6.6,4.1-8c1.6-0.6,3.3-0.9,5.1-0.9C272.2,250,283,250,293.7,250z"/>
	<path d="M293.5,285.9c10.7,0,21.4,0,32.1,0c5.5,0,8.9,2.8,9,7.3s-3.4,7.6-9,7.6c-21.4,0-42.8,0-64.2,0c-5.5,0-8.9-2.9-9-7.3
		c-0.1-4.6,3.4-7.6,9.1-7.6C272,285.9,282.7,285.9,293.5,285.9z"/>
	<path d="M368.2,221.6c0,4.1-3.4,7.4-7.5,7.4c-4.1,0-7.4-3.4-7.4-7.5c0-4.1,3.4-7.4,7.5-7.4c0.1,0,0.1,0,0.2,0
		C365.1,214.3,368.2,217.6,368.2,221.6z"/>
</g>
</svg>
