<svg width="32" height="32" viewBox="0 0 32 32" fill="none" xmlns="http://www.w3.org/2000/svg">
<path d="M12 24H9.6C9.17565 24 8.76869 23.8314 8.46863 23.5314C8.16857 23.2313 8 22.8243 8 22.4V16.8C8 16.3757 8.16857 15.9687 8.46863 15.6686C8.76869 15.3686 9.17565 15.2 9.6 15.2H12M17.6 13.6V10.4C17.6 9.76348 17.3471 9.15303 16.8971 8.70294C16.447 8.25286 15.8365 8 15.2 8L12 15.2V24H21.024C21.4099 24.0044 21.7843 23.8691 22.0783 23.6192C22.3723 23.3693 22.5661 23.0215 22.624 22.64L23.728 15.44C23.7628 15.2107 23.7473 14.9765 23.6827 14.7538C23.618 14.5311 23.5057 14.325 23.3535 14.15C23.2013 13.975 23.0129 13.8351 22.8013 13.7402C22.5897 13.6452 22.3599 13.5974 22.128 13.6H17.6Z" stroke="#1850A8" stroke-width="2" stroke-linecap="round" stroke-linejoin="round"/>
</svg>
