<svg xmlns="http://www.w3.org/2000/svg" xmlns:xlink="http://www.w3.org/1999/xlink" viewBox="0 0 24 24">
  <path
    d="M18.6,21.4H5.4c-1,0-1.9-0.8-1.9-1.9V6.3c0-1,0.8-1.9,1.9-1.9h1.9V2.6h1.9v1.9h5.7V2.6h1.9v1.9h1.9c1,0,1.9,0.8,1.9,1.9
	v13.2C20.5,20.6,19.6,21.4,18.6,21.4z M5.4,10.1v9.4h13.2v-9.4H5.4z M5.4,6.3v1.9h13.2V6.3H5.4z M16.7,17.7h-1.9v-1.9h1.9V17.7z
	 M12.9,17.7h-1.9v-1.9h1.9V17.7z M9.2,17.7H7.3v-1.9h1.9V17.7z M16.7,13.9h-1.9V12h1.9V13.9z M12.9,13.9h-1.9V12h1.9V13.9z
	 M9.2,13.9H7.3V12h1.9V13.9z"
  />
</svg>
