<svg width="22" height="24" viewBox="0 0 22 24" fill="none" xmlns="http://www.w3.org/2000/svg">
<path d="M1.31125 10.2043L10.2934 1.67132C10.6865 1.29781 11.3057 1.30574 11.6892 1.68921L20.2071 10.2071C20.3946 10.3946 20.5 10.649 20.5 10.9142V21.5C20.5 22.0523 20.0523 22.5 19.5 22.5H14C13.4477 22.5 13 22.0523 13 21.5V17.5C13 16.9477 12.5523 16.5 12 16.5H9C8.44772 16.5 8 16.9477 8 17.5V21.5C8 22.0523 7.55228 22.5 7 22.5H2C1.44772 22.5 1 22.0523 1 21.5V10.9293C1 10.6552 1.11252 10.3931 1.31125 10.2043Z" stroke="white" stroke-width="2"/>
</svg>

