<svg width="40" height="40" viewBox="0 0 40 40" fill="none" xmlns="http://www.w3.org/2000/svg">
<path d="M20.0007 6.66659C12.6369 6.66659 6.66732 12.6361 6.66732 19.9999C6.66732 27.3637 12.6369 33.3333 20.0007 33.3333C27.3645 33.3333 33.334 27.3637 33.334 19.9999C33.334 12.6361 27.3645 6.66659 20.0007 6.66659ZM3.33398 19.9999C3.33398 10.7952 10.7959 3.33325 20.0007 3.33325C29.2054 3.33325 36.6673 10.7952 36.6673 19.9999C36.6673 29.2047 29.2054 36.6666 20.0007 36.6666C10.7959 36.6666 3.33398 29.2047 3.33398 19.9999Z" fill="white"/>
<path d="M20.0007 23.3333C19.0802 23.3333 18.334 22.5871 18.334 21.6666V19.9999C18.334 19.0794 19.0802 18.3333 20.0007 18.3333C20.9211 18.3333 21.6673 19.0794 21.6673 19.9999V21.6666C21.6673 22.5871 20.9211 23.3333 20.0007 23.3333Z" fill="white"/>
<path d="M17.5007 27.4999C17.5007 26.1192 18.6199 24.9999 20.0007 24.9999C21.3814 24.9999 22.5007 26.1192 22.5007 27.4999C22.5007 28.8806 21.3814 29.9999 20.0007 29.9999C18.6199 29.9999 17.5007 28.8806 17.5007 27.4999Z" fill="white"/>
<path d="M20.6505 13.0189C19.0555 12.9429 17.718 13.8339 17.478 15.2739C17.3266 16.1819 16.4679 16.7952 15.56 16.6439C14.652 16.4926 14.0387 15.6339 14.19 14.7259C14.7833 11.1659 18.0291 9.55693 20.8091 9.68931C22.2331 9.75712 23.6966 10.2682 24.8235 11.3212C25.9783 12.4004 26.6673 13.9462 26.6673 15.8333C26.6673 17.9854 25.8205 19.5814 24.3626 20.5533C23.0241 21.4457 21.3832 21.6666 20.0007 21.6666C19.0802 21.6666 18.334 20.9204 18.334 19.9999C18.334 19.0794 19.0802 18.3333 20.0007 18.3333C21.1181 18.3333 21.9772 18.1375 22.5137 17.7798C22.9308 17.5017 23.334 17.0144 23.334 15.8333C23.334 14.8036 22.9813 14.162 22.5476 13.7567C22.086 13.3254 21.414 13.0552 20.6505 13.0189Z" fill="white"/>
</svg>
