<svg width="11" height="3" viewBox="0 0 11 3" fill="none" xmlns="http://www.w3.org/2000/svg">
<path d="M0.670158 1.24219C0.670158 0.992188 0.743075 0.783854 0.888908 0.617188C1.03995 0.450521 1.26391 0.367188 1.56078 0.367188C1.85766 0.367188 2.08162 0.450521 2.23266 0.617188C2.38891 0.783854 2.46703 0.992188 2.46703 1.24219C2.46703 1.48177 2.38891 1.68229 2.23266 1.84375C2.08162 2.00521 1.85766 2.08594 1.56078 2.08594C1.26391 2.08594 1.03995 2.00521 0.888908 1.84375C0.743075 1.68229 0.670158 1.48177 0.670158 1.24219ZM4.88891 1.24219C4.88891 0.992188 4.96183 0.783854 5.10766 0.617188C5.2587 0.450521 5.48266 0.367188 5.77953 0.367188C6.07641 0.367188 6.30037 0.450521 6.45141 0.617188C6.60766 0.783854 6.68578 0.992188 6.68578 1.24219C6.68578 1.48177 6.60766 1.68229 6.45141 1.84375C6.30037 2.00521 6.07641 2.08594 5.77953 2.08594C5.48266 2.08594 5.2587 2.00521 5.10766 1.84375C4.96183 1.68229 4.88891 1.48177 4.88891 1.24219ZM9.10766 1.24219C9.10766 0.992188 9.18058 0.783854 9.32641 0.617188C9.47745 0.450521 9.70141 0.367188 9.99828 0.367188C10.2952 0.367188 10.5191 0.450521 10.6702 0.617188C10.8264 0.783854 10.9045 0.992188 10.9045 1.24219C10.9045 1.48177 10.8264 1.68229 10.6702 1.84375C10.5191 2.00521 10.2952 2.08594 9.99828 2.08594C9.70141 2.08594 9.47745 2.00521 9.32641 1.84375C9.18058 1.68229 9.10766 1.48177 9.10766 1.24219Z" fill="#C4C4C4"/>
</svg>
