<svg width="20" height="20" viewBox="0 0 20 20" fill="none" xmlns="http://www.w3.org/2000/svg">
<circle cx="10" cy="10" r="9" stroke="white" stroke-width="2"/>
<path d="M13.5 10C13.5 12.7141 13.059 15.1482 12.3642 16.8854C12.0162 17.7553 11.6144 18.4258 11.1937 18.8706C10.7741 19.3143 10.3705 19.5 10 19.5C9.6295 19.5 9.22595 19.3143 8.8063 18.8706C8.38565 18.4258 7.98379 17.7553 7.63581 16.8854C6.94095 15.1482 6.5 12.7141 6.5 10C6.5 7.2859 6.94095 4.85177 7.63581 3.11463C7.98379 2.24467 8.38565 1.5742 8.8063 1.1294C9.22595 0.685661 9.6295 0.5 10 0.5C10.3705 0.5 10.7741 0.685661 11.1937 1.1294C11.6144 1.5742 12.0162 2.24467 12.3642 3.11463C13.059 4.85177 13.5 7.2859 13.5 10Z" stroke="white"/>
<path d="M2 7C1.90342 7.49058 1.90348 7.49059 1.90355 7.49061C1.9036 7.49062 1.90369 7.49064 1.90379 7.49066C1.90399 7.4907 1.90426 7.49075 1.90462 7.49082C1.90532 7.49096 1.90634 7.49116 1.90766 7.49141C1.91029 7.49193 1.91415 7.49268 1.91919 7.49367C1.92929 7.49563 1.94415 7.49851 1.96359 7.50225C2.00247 7.50972 2.05966 7.52061 2.13357 7.53444C2.28139 7.5621 2.49617 7.6015 2.76531 7.64872C3.30344 7.74316 4.05959 7.86901 4.93269 7.99488C6.67361 8.24587 8.90008 8.5 10.7931 8.5V7.5C8.97275 7.5 6.80267 7.25413 5.07538 7.00512C4.21438 6.88099 3.46851 6.75684 2.93815 6.66378C2.67304 6.61725 2.46196 6.57853 2.31747 6.5515C2.24524 6.53798 2.18966 6.52739 2.15232 6.52022C2.13365 6.51663 2.11953 6.51389 2.11018 6.51207C2.1055 6.51116 2.10201 6.51048 2.09974 6.51004C2.0986 6.50981 2.09776 6.50965 2.09724 6.50955C2.09697 6.50949 2.09679 6.50946 2.09668 6.50944C2.09662 6.50942 2.0966 6.50942 2.09657 6.50941C2.09656 6.50941 2.09658 6.50942 2 7ZM10.7931 8.5C12.688 8.5 14.7693 8.24549 16.3668 7.99391C17.1678 7.86778 17.8517 7.74164 18.3358 7.64695C18.578 7.59959 18.7703 7.56006 18.9025 7.53228C18.9686 7.51839 19.0197 7.50743 19.0545 7.4999C19.0719 7.49613 19.0852 7.49322 19.0942 7.49123C19.0988 7.49023 19.1023 7.48947 19.1047 7.48893C19.1059 7.48867 19.1068 7.48846 19.1075 7.48832C19.1078 7.48824 19.108 7.48819 19.1082 7.48814C19.1083 7.48812 19.1084 7.4881 19.1085 7.48809C19.1086 7.48807 19.1086 7.48806 19 7C18.8914 6.51194 18.8914 6.51193 18.8914 6.51193C18.8914 6.51194 18.8914 6.51194 18.8913 6.51195C18.8913 6.51197 18.8911 6.512 18.8909 6.51205C18.8905 6.51214 18.8898 6.5123 18.8888 6.51251C18.8868 6.51295 18.8838 6.51361 18.8797 6.51451C18.8716 6.5163 18.8592 6.519 18.8428 6.52256C18.8099 6.52968 18.7609 6.5402 18.6968 6.55366C18.5688 6.58056 18.3811 6.61916 18.1439 6.66555C17.6694 6.75836 16.9979 6.88222 16.2113 7.00609C14.6338 7.25451 12.6116 7.5 10.7931 7.5V8.5Z" fill="white"/>
<path d="M2 14C1.89868 13.5104 1.89873 13.5104 1.8988 13.5103C1.89885 13.5103 1.89894 13.5103 1.89903 13.5103C1.89922 13.5103 1.89948 13.5102 1.89982 13.5101C1.90049 13.51 1.90145 13.5098 1.9027 13.5095C1.90521 13.509 1.90887 13.5083 1.91366 13.5073C1.92325 13.5053 1.93736 13.5025 1.95581 13.4987C1.9927 13.4912 2.04692 13.4804 2.11688 13.4665C2.25679 13.4389 2.4597 13.3995 2.71291 13.3522C3.21916 13.2578 3.92725 13.1319 4.73527 13.006C6.34419 12.7552 8.37582 12.5 10 12.5V13.5C8.4569 13.5 6.48853 13.7448 4.88926 13.994C4.09319 14.1181 3.39515 14.2422 2.89629 14.3353C2.64694 14.3818 2.44755 14.4205 2.3108 14.4475C2.24243 14.4611 2.18973 14.4716 2.15428 14.4788C2.13656 14.4824 2.12315 14.4851 2.11426 14.487C2.10981 14.4879 2.10649 14.4886 2.10433 14.489C2.10324 14.4892 2.10245 14.4894 2.10195 14.4895C2.1017 14.4895 2.10152 14.4896 2.10141 14.4896C2.10136 14.4896 2.10133 14.4896 2.10131 14.4896C2.1013 14.4896 2.10132 14.4896 2 14ZM10 12.5C11.6242 12.5 13.6558 12.7552 15.2647 13.006C16.0727 13.1319 16.7808 13.2578 17.2871 13.3522C17.5403 13.3995 17.7432 13.4389 17.8831 13.4665C17.9531 13.4804 18.0073 13.4912 18.0442 13.4987C18.0626 13.5025 18.0768 13.5053 18.0863 13.5073C18.0911 13.5083 18.0948 13.509 18.0973 13.5095C18.0986 13.5098 18.0995 13.51 18.1002 13.5101C18.1005 13.5102 18.1008 13.5103 18.101 13.5103C18.1011 13.5103 18.1012 13.5103 18.1012 13.5103C18.1013 13.5104 18.1013 13.5104 18 14C17.8987 14.4896 17.8987 14.4896 17.8987 14.4896C17.8987 14.4896 17.8986 14.4896 17.8986 14.4896C17.8985 14.4896 17.8983 14.4895 17.8981 14.4895C17.8975 14.4894 17.8968 14.4892 17.8957 14.489C17.8935 14.4886 17.8902 14.4879 17.8857 14.487C17.8768 14.4851 17.8634 14.4824 17.8457 14.4788C17.8103 14.4716 17.7576 14.4611 17.6892 14.4475C17.5524 14.4205 17.3531 14.3818 17.1037 14.3353C16.6049 14.2422 15.9068 14.1181 15.1107 13.994C13.5115 13.7448 11.5431 13.5 10 13.5V12.5Z" fill="white"/>
</svg>
