<svg xmlns="http://www.w3.org/2000/svg" viewBox="0 0 24 24"><defs><style>.cls-1{fill:none;}</style></defs><g id="Layer_2" data-name="Layer 2"><g id="Layer_1-2" data-name="Layer 1"><rect class="cls-1" width="24" height="24"/><path d="M6.28,5.14a.88.88,0,0,1,1.37.06l2,2.7A3.45,3.45,0,0,0,10,6.5a3.53,3.53,0,1,0-1.77,3l-2-3.22A.87.87,0,0,1,6.28,5.14Z"/><path d="M20.9,15.61a1.33,1.33,0,0,1-.06-.3l-.55-4.59a3.57,3.57,0,0,0-.45-1.37L18.9,7.72a2.07,2.07,0,0,0-1.54-1,2.1,2.1,0,0,0-1.5.35,2.08,2.08,0,0,0-1.69-.11,1.54,1.54,0,0,0-.73.72,2.28,2.28,0,0,0-2.6.44L8.65,5.2a.88.88,0,0,0-1.37-.06.87.87,0,0,0,0,1.17l2.59,4.21.35.52a.59.59,0,0,1,.06.5.55.55,0,0,1-.35.35.54.54,0,0,1-.52-.07L7.56,10.53a1,1,0,0,0-.28-.14l-.23-.07a.85.85,0,0,0-.93.29.86.86,0,0,0,0,1l1.79,2a10.27,10.27,0,0,0,2.08,1.76l2.12,1.37a5.22,5.22,0,0,1,.95.81l.9,1a4,4,0,0,0,2.94,1.3,4.11,4.11,0,0,0,1.56-.32l.8-.35A3,3,0,0,0,20.9,15.61Z"/></g></g></svg>