<svg xmlns="http://www.w3.org/2000/svg" xmlns:xlink="http://www.w3.org/1999/xlink" viewBox="0 0 24 24">
  <path
    d="M4,3.8h4.5l1.4,3.6L7.6,9C7.3,9.2,7.2,9.5,7.2,9.8c0,0.1,0,0,0,0v0l0,0l0,0l0,0c0,0,0,0,0,0c0,0,0,0.1,0,0.1
	c0,0.1,0,0.2,0,0.3c0,0.3,0.1,0.6,0.3,1.1c0.3,0.9,0.9,2,2,3.1c1.1,1.1,2.3,1.7,3.1,2c0.4,0.1,0.8,0.2,1.1,0.3c0.1,0,0.2,0,0.3,0
	c0,0,0.1,0,0.1,0c0,0,0,0,0,0l0,0h0h0h0c0,0,0.1,0,0,0c0.4,0,0.7-0.2,0.9-0.6l0.7-1.3l4.4,0.7V20c-2.1,0.3-7.8,0.6-12.3-3.9
	C3.4,11.7,3.7,6,4,3.8z M9.2,10.3L11,9.1c0.8-0.5,1.1-1.5,0.7-2.4l-1.4-3.6c-0.3-0.8-1-1.3-1.9-1.3H3.9C3,1.8,2.2,2.5,2,3.5
	c-0.3,2.2-0.8,8.9,4.4,14.1c5.2,5.2,11.8,4.8,14.1,4.4c1-0.1,1.6-1,1.6-1.9v-4.4c0-1-0.7-1.8-1.7-2L16.1,13
	c-0.9-0.1-1.7,0.3-2.1,1.1l-0.3,0.7c-0.1,0-0.2-0.1-0.4-0.1c-0.6-0.2-1.5-0.6-2.4-1.5c-0.9-0.9-1.3-1.7-1.5-2.4
	C9.3,10.6,9.3,10.5,9.2,10.3z"
  />
</svg>
