<svg xmlns="http://www.w3.org/2000/svg" xmlns:xlink="http://www.w3.org/1999/xlink" viewBox="0 0 24 24">
  <path
    d="M10.1,3.2C10.4,2.5,11.2,2,12,2s1.6,0.5,1.9,1.2c3,0.8,5.1,3.5,5.1,6.8v4.7l1.8,2.7c0.2,0.3,0.2,0.7,0,1
	C20.7,18.8,20.4,19,20,19h-4.5c-0.2,1.7-1.7,3-3.5,3s-3.2-1.3-3.5-3H4c-0.4,0-0.7-0.2-0.9-0.5c-0.2-0.3-0.2-0.7,0-1L5,14.7V10
	C5,6.8,7.2,4.1,10.1,3.2z M10.6,19c0.2,0.6,0.8,1,1.4,1s1.2-0.4,1.4-1H10.6z M12,5c-2.8,0-5,2.2-5,5v5c0,0.2-0.1,0.4-0.2,0.6l-1,1.4
	h12.3l-1-1.4C17.1,15.4,17,15.2,17,15v-5C17,7.2,14.8,5,12,5z"
  />
</svg>
