<svg width="32" height="32" viewBox="0 0 32 32" fill="none" xmlns="http://www.w3.org/2000/svg">
<path d="M20.8004 12.8C22.1259 12.8 23.2004 11.7255 23.2004 10.4C23.2004 9.07452 22.1259 8 20.8004 8C19.4749 8 18.4004 9.07452 18.4004 10.4C18.4004 11.7255 19.4749 12.8 20.8004 12.8Z" stroke="#1850A8" stroke-width="2" stroke-linecap="round" stroke-linejoin="round"/>
<path d="M11.2008 18.4001C12.5263 18.4001 13.6008 17.3256 13.6008 16.0001C13.6008 14.6746 12.5263 13.6001 11.2008 13.6001C9.8753 13.6001 8.80078 14.6746 8.80078 16.0001C8.80078 17.3256 9.8753 18.4001 11.2008 18.4001Z" stroke="#1850A8" stroke-width="2" stroke-linecap="round" stroke-linejoin="round"/>
<path d="M20.8004 24C22.1259 24 23.2004 22.9254 23.2004 21.6C23.2004 20.2745 22.1259 19.2 20.8004 19.2C19.4749 19.2 18.4004 20.2745 18.4004 21.6C18.4004 22.9254 19.4749 24 20.8004 24Z" stroke="#1850A8" stroke-width="2" stroke-linecap="round" stroke-linejoin="round"/>
<path d="M13.2715 17.208L18.7355 20.392" stroke="#1850A8" stroke-width="2" stroke-linecap="round" stroke-linejoin="round"/>
<path d="M18.7275 11.6079L13.2715 14.7919" stroke="#1850A8" stroke-width="2" stroke-linecap="round" stroke-linejoin="round"/>
</svg>
