<svg width="20" height="18" viewBox="0 0 20 18" fill="none" xmlns="http://www.w3.org/2000/svg">
<path d="M7 0C4.23858 0 2 2.23858 2 5C2 7.76142 4.23858 10 7 10C9.76142 10 12 7.76142 12 5C12 2.23858 9.76142 0 7 0ZM4 5C4 3.34315 5.34315 2 7 2C8.65685 2 10 3.34315 10 5C10 6.65685 8.65685 8 7 8C5.34315 8 4 6.65685 4 5Z" fill="white"/>
<path d="M14.9084 5.21828C14.6271 5.07484 14.3158 5.00006 14 5.00006V3.00006C14.6316 3.00006 15.2542 3.14956 15.8169 3.43645C15.8789 3.46805 15.9399 3.50121 16 3.5359C16.4854 3.81614 16.9072 4.19569 17.2373 4.65055C17.6083 5.16172 17.8529 5.75347 17.9512 6.37737C18.0496 7.00126 17.9987 7.63958 17.8029 8.24005C17.6071 8.84053 17.2719 9.38611 16.8247 9.83213C16.3775 10.2782 15.8311 10.6119 15.2301 10.8062C14.6953 10.979 14.1308 11.037 13.5735 10.9772C13.5046 10.9698 13.4357 10.9606 13.367 10.9496C12.7438 10.8497 12.1531 10.6038 11.6431 10.2319L11.6421 10.2311L12.821 8.61557C13.0761 8.80172 13.3717 8.92477 13.6835 8.97474C13.9953 9.02471 14.3145 9.00014 14.615 8.90302C14.9155 8.80591 15.1887 8.63903 15.4123 8.41602C15.6359 8.19302 15.8035 7.92024 15.9014 7.62001C15.9993 7.31978 16.0247 7.00063 15.9756 6.68869C15.9264 6.37675 15.8041 6.08089 15.6186 5.82531C15.4331 5.56974 15.1898 5.36172 14.9084 5.21828Z" fill="white"/>
<path d="M17.9981 18C17.9981 17.475 17.8947 16.9551 17.6938 16.47C17.4928 15.9849 17.1983 15.5442 16.8271 15.1729C16.4558 14.8017 16.0151 14.5072 15.53 14.3062C15.0449 14.1053 14.525 14.0019 14 14.0019V12C14.6821 12 15.3584 12.1163 16 12.3431C16.0996 12.3783 16.1983 12.4162 16.2961 12.4567C17.0241 12.7583 17.6855 13.2002 18.2426 13.7574C18.7998 14.3145 19.2417 14.9759 19.5433 15.7039C19.5838 15.8017 19.6217 15.9004 19.6569 16C19.8837 16.6416 20 17.3179 20 18H17.9981Z" fill="white"/>
<path d="M14 18H12C12 15.2386 9.76142 13 7 13C4.23858 13 2 15.2386 2 18H0C0 14.134 3.13401 11 7 11C10.866 11 14 14.134 14 18Z" fill="white"/>
</svg>

