<svg viewBox="0 0 342.328 342.328">
    <path d="M149.89 114.309c-1.2-4.4-3.2-8.4-6-11.6-2.8-3.2-6-5.6-9.6-7.2-4-1.6-8.4-2.4-13.2-2.4-6.8 0-12.8 1.6-17.2 4.4-4.4 2.8-7.6 7.2-9.6 12.8-2.4 5.6-3.2 12.8-3.2 21.2 0 8 1.2 14.4 4 20 2.4 5.6 6 9.6 10.8 12 4.8 2.4 10 4 15.6 4 9.6 0 16.8-3.2 22.4-9.2 5.6-6 8-15.2 8-27.6 0-6.4-.8-11.6-2-16.4zm-18.8 34.8c-1.6 4-4.8 6-9.6 6-3.2 0-5.6-.8-7.6-2.8s-3.2-4.4-3.6-8c-.8-3.6-1.2-8.4-1.2-14s.4-10 1.2-13.6c.8-3.6 2-6.4 3.6-8 2-2 4.4-2.8 7.6-2.8 4.4 0 8 2 9.6 5.6 2 4 2.8 10 2.8 18.4-.4 8.4-1.2 14.8-2.8 19.2zM218.29 93.909c-1.2-1.2-2.8-1.6-4.8-1.6s-3.6.4-4.8 1.6c-1.2 1.2-2.4 2.8-3.6 5.2l-81.2 131.6c-1.2 2-2 3.6-2 4.8 0 2 .8 3.2 2.4 4.4 1.6 1.2 2.8 1.6 4.4 1.6 2.4 0 4.8-1.6 6.8-5.2l80.8-130.4c2.8-3.6 4-6.4 4-7.6 0-2-.8-3.2-2-4.4zM249.49 184.709c-1.6-4.8-3.6-8.8-6-11.6-2.8-3.2-6-5.6-9.6-6.8-3.6-1.6-8-2.4-13.2-2.4-10.4 0-18 3.2-22.8 9.6-4.8 6.4-7.2 16-7.2 28.4 0 8 1.2 14.4 4 20 2.8 5.2 6.4 9.2 10.8 12 4.8 2.4 10 4 15.6 4 9.6 0 16.8-3.2 22.4-9.2 5.6-6 8-15.2 8-27.6 0-6.4-.8-11.6-2-16.4zm-19.2 34.4c-1.6 4-4.8 6-9.6 6s-8-2-9.6-6c-2-4-2.8-10.4-2.8-19.2 0-5.6.4-10.4 1.2-13.6.8-3.6 2-6 4-8s4.4-2.8 7.6-2.8c4.4 0 8 2 9.6 5.6 2 4 2.8 10 2.8 18.4-.4 9.2-1.2 15.6-3.2 19.6z"></path>
    <path d="M322.69 171.109l17.6-28.8c3.2-2.8 2.4-7.2-.8-9.2l-27.2-20 5.2-33.6c.4-3.6-1.6-7.2-5.2-8l-33.2-8-8-32.8c-.8-3.6-4.4-6-8-5.2l-33.6 5.2-20-27.2c-2.4-2.8-6.4-4-9.6-2l-28.8 17.2-28.8-17.6c-3.2-2-7.2-1.2-9.6 2l-20 27.2-33.6-5.2c-3.6-.4-7.2 1.6-8 5.2l-8 33.2-32.8 8c-3.6.8-6 4.4-5.2 8l5.2 33.6-27.2 20c-2.8 2-4 6.4-2 9.6l17.6 28.8-17.6 28.8c-2 3.2-1.2 7.2 2 9.6l27.2 20-5.6 33.6c-.4 3.6 1.6 7.2 5.2 8l32.8 8 8 32.8c.8 3.6 4.4 6 8 5.2l33.6-5.2 20 27.2c1.2 2 3.6 2.8 5.6 2.8 1.2 0 2.4-.4 3.6-1.2l28.8-17.6 28.8 17.6c3.2 2 7.2 1.2 9.6-2l20-27.2 33.6 5.2c3.6.4 7.2-1.6 8-5.2l8-32.8 32.8-8c3.6-.8 6-4.4 5.2-8l-5.2-33.6 27.2-20c2.8-2.4 4-6.4 2-9.6l-17.6-28.8zm-22.4 50.4c-2 1.6-3.2 4.4-2.8 6.8l4.8 31.2-30.8 7.6c-2.8.8-4.8 2.8-5.2 5.2l-7.6 30.8-31.2-4.8c-2.8-.4-5.2.8-6.8 2.8l-18.8 25.6-27.2-16.4c-1.2-.8-2.4-1.2-3.6-1.2s-2.4.4-3.6 1.2l-27.2 16.4-18.8-25.6c-1.6-2-4.4-3.2-6.8-2.8l-31.2 4.8-7.6-30.8c-.8-2.8-2.8-4.8-5.2-5.2l-30.8-7.6 4.8-31.2c.4-2.8-.8-5.2-2.8-6.8l-25.6-18.8 16.4-27.2c1.2-2.4 1.2-5.2 0-7.6l-16.4-27.2 25.6-18.8c2-1.6 3.2-4.4 2.8-6.8l-4.8-31.2 30.8-7.6c2.8-.8 4.8-2.8 5.2-5.2l7.6-30.8 31.2 4.8c2.8.4 5.2-.8 6.8-2.8l18.8-25.6 27.2 16.4c2.4 1.2 5.2 1.2 7.6 0l27.2-16.4 18.8 25.6c1.6 2 4.4 3.2 6.8 2.8l31.2-4.8 7.6 30.8c.8 2.8 2.8 4.8 5.2 5.2l30.8 7.6-4.8 31.2c-.4 2.8.8 5.2 2.8 6.8l25.6 18.8-16.8 27.2c-1.2 2.4-1.2 5.2 0 7.6l16.4 27.2-25.6 18.8z"></path>
</svg>