<svg width="18" height="21" viewBox="0 0 18 21" fill="none" xmlns="http://www.w3.org/2000/svg">
<path d="M1 16H0V17H1V16ZM17 16V17H18V16H17ZM9 16V15H8.58579L8.29289 15.2929L9 16ZM5 16H6V15H5V16ZM5.17071 19.8293L5.87782 20.5364L5.17071 19.8293ZM2 16V10H0V16H2ZM4 8H14V6H4V8ZM16 10V16H18V10H16ZM17 15H9V17H17V15ZM8.29289 15.2929L4.4636 19.1222L5.87782 20.5364L9.70711 16.7071L8.29289 15.2929ZM6 19.7586V16H4V19.7586H6ZM5 15H1V17H5V15ZM4.4636 19.1222C5.03058 18.5552 6 18.9568 6 19.7586H4C4 20.7386 5.18485 21.2294 5.87782 20.5364L4.4636 19.1222ZM14 8C15.1046 8 16 8.89543 16 10H18C18 7.79086 16.2091 6 14 6V8ZM2 10C2 8.89543 2.89543 8 4 8V6C1.79086 6 0 7.79086 0 10H2Z" fill="white"/>
<rect x="8" y="10" width="2" height="3" rx="1" fill="white"/>
<rect x="11" y="10" width="2" height="3" rx="1" fill="white"/>
<circle cx="3" cy="2" r="2" fill="white"/>
<path d="M3 2L6 7" stroke="white" stroke-width="2"/>
</svg>
